<svg id="Layer_4" data-name="Layer 4" xmlns="http://www.w3.org/2000/svg" viewBox="0 0 713.4 124.6"><defs><style>.cls-1{fill:#231f20;}</style></defs><title>zen-dark</title><path class="cls-1" d="M53.7,209.8v-27l44.2-44H81.8v6.5h-27V109.1h95.1V135l-43.1,45.1h17.3V169.9h27.4v39.9Z" transform="translate(-53.7 -87.7)"/><path class="cls-1" d="M171.1,198.8c-9.7-9-14.5-22.1-14.5-39.4s4.8-30.4,14.5-39.4,23-13.5,40.2-13.5,29.3,4.5,36.8,13.3,11.4,19.9,11.4,33.1v13H200.8V167c0,4.5,1.3,7.8,4,9.9s7,3.2,13.2,3.2a127.6,127.6,0,0,0,21-1.7,101.5,101.5,0,0,0,17.4-4.1v29c-4.2,2.3-10.4,4.3-18.6,6.2a116.5,116.5,0,0,1-26.5,2.8Q185.5,212.3,171.1,198.8ZM221.8,146v-2.2c0-4.1-.9-7-2.6-8.8s-4.4-2.8-7.9-2.8-6.1,1-7.9,2.9-2.6,4.8-2.6,8.7V146Z" transform="translate(-53.7 -87.7)"/><path class="cls-1" d="M385.2,180.1v29.7H327.9V180.1h7.7V150.4c0-4-.9-7-2.6-8.8s-4.2-2.8-7.6-2.8c-7.2,0-10.9,3.8-10.9,11.6v29.7h7.6v29.7H264.9V180.1h8V138.8h-8V109.1h49.6v14.1c8.7-11.1,19.6-16.7,32.6-16.7,10.1,0,17.6,3.2,22.6,9.4s7.5,15,7.5,25.9v38.3Z" transform="translate(-53.7 -87.7)"/><path class="cls-1" d="M406.8,203c-6.4-6.2-9.7-16.7-9.7-31.4V138.8h-7.9V109.1c4.6,0,8-1.2,10.3-3.6s3.4-5.6,3.4-9.7V87.7h38.4v21.4h24.5v29.7H441.3v29.7c0,4,.9,6.9,2.7,8.8s4.3,2.8,7.9,2.8a76.6,76.6,0,0,0,15-1.7v28.5a95.3,95.3,0,0,1-13.7,3.7,92.7,92.7,0,0,1-17.5,1.7C422.9,212.3,413.3,209.2,406.8,203Z" transform="translate(-53.7 -87.7)"/><path class="cls-1" d="M655.7,180.1v29.7H598.4V180.1H606V150.4c0-4-.8-7-2.5-8.8s-4.3-2.8-7.6-2.8c-7.3,0-10.9,3.8-10.9,11.6v29.7h7.6v29.7H535.7V180.1h7.6V150.4c0-4-.8-7-2.5-8.8s-4.2-2.8-7.6-2.8c-7.3,0-10.9,3.8-10.9,11.6v29.7h7.6v29.7H472.7V180.1h8V138.8h-8V109.1h49.6v14.1c8.7-11.1,19.6-16.7,32.6-16.7,7.4,0,13.4,1.7,18.1,5.2a27.4,27.4,0,0,1,9.8,14.6,50.2,50.2,0,0,1,15-14.5,37.4,37.4,0,0,1,19.8-5.1c10,0,17.6,3.1,22.6,9.4s7.5,14.9,7.5,25.9v38.1Z" transform="translate(-53.7 -87.7)"/><path class="cls-1" d="M767.1,180.1v29.7H719.2V197.5a37,37,0,0,1-11.1,10.3c-4.8,3-10.6,4.5-17.5,4.5-9,0-16.2-2.4-21.4-7.2s-7.8-11.7-7.8-20.5q0-34.2,58.2-35.1c-.4-4.1-1.9-7-4.7-8.5s-7.5-2.2-14.1-2.2a91.6,91.6,0,0,0-17.5,1.7,98.8,98.8,0,0,0-17.1,4.6V111.8A168.1,168.1,0,0,1,687,108a165.7,165.7,0,0,1,21.9-1.5c18,0,30.9,3.3,38.6,9.8s11.6,16.6,11.6,30.3v33.5Zm-47.9-12.7c-5.4,0-9.6.7-12.6,2.2a7.4,7.4,0,0,0-4.4,7.2,6.6,6.6,0,0,0,1.9,5,7.3,7.3,0,0,0,5.4,1.9,8,8,0,0,0,7.2-4c1.7-2.6,2.5-6.4,2.5-11.2Z" transform="translate(-53.7 -87.7)"/></svg>