<?xml version="1.0" encoding="utf-8"?>
<!-- Generator: Adobe Illustrator 27.9.0, SVG Export Plug-In . SVG Version: 6.00 Build 0)  -->
<svg version="1.1" id="Layer_1" xmlns="http://www.w3.org/2000/svg" xmlns:xlink="http://www.w3.org/1999/xlink" x="0px" y="0px"
	 viewBox="0 0 612 792" style="enable-background:new 0 0 612 792;" xml:space="preserve">
<style type="text/css">
	.st0{fill:#FFFFFF;}
</style>
<path class="st0" d="M981.13,358.99l45.5-53.18v-16.6h-73.6h-5.4h-28.1L886,319.49h-0.61v-67.17h-28.28v65.45
	c-0.93-2.81-2.09-5.47-3.51-7.96c-4.1-7.17-9.86-12.7-17.29-16.6c-7.43-3.89-16.27-5.84-26.51-5.84c-10.25,0-19.16,1.95-26.75,5.84
	c-7.58,3.9-13.45,9.43-17.6,16.6c-0.87,1.5-1.62,3.06-2.3,4.67c-1.63-6.42-4.66-11.87-9.11-16.35c-7.02-7.07-17.09-10.61-30.2-10.61
	c-8.4,0-15.29,1.51-20.67,4.53c-5.38,3.02-9.91,7.2-13.6,12.53h-6.46v-15.37h-28.28v27.67h13.83v64.56h28.28V332.1
	c0-6.35,1.66-11.17,5-14.45c3.33-3.28,8.22-4.92,14.68-4.92s11.35,1.64,14.68,4.92c3.33,3.28,5,8.1,5,14.45v49.34h28.28v-22.51
	c0.29,0.56,0.57,1.13,0.89,1.68c4.15,7.22,10.01,12.81,17.6,16.75c7.58,3.95,16.45,5.92,26.59,5.92c10.25,0,19.11-1.95,26.59-5.84
	c7.48-3.89,13.27-9.45,17.37-16.68c1.42-2.51,2.58-5.18,3.51-7.99v28.66h28.28v-32.89l9.53-7.69l27.97,40.58h21.96h10.94h71.76
	v-22.44H981.13z M825.85,352.31c-3.74,4.25-9.15,6.38-16.22,6.38c-7.17,0-12.66-2.13-16.45-6.38c-3.79-4.25-5.69-9.96-5.69-17.14
	c0-7.17,1.89-12.83,5.69-16.98c3.79-4.15,9.27-6.23,16.45-6.23c7.07,0,12.47,2.08,16.22,6.23c3.74,4.15,5.61,9.81,5.61,16.98
	C831.46,342.34,829.59,348.06,825.85,352.31z M944.85,364.83v1.14l-29.95-42.33l32.71-29.55v17.56h42.73L944.85,364.83z"/>
</svg>
