<?xml version="1.0" encoding="UTF-8"?>
<svg id="Layer_2" data-name="Layer 2" xmlns="http://www.w3.org/2000/svg" viewBox="0 0 420.65 420.65">
  <defs>
    <style>
      .cls-1 {
        fill: #fff;
      }

      .cls-1, .cls-2 {
        stroke-width: 0px;
      }

      .cls-2 {
        fill: #8800d8;
      }
    </style>
  </defs>
  <g id="Layer_1-2" data-name="Layer 1">
    <rect class="cls-2" width="420.65" height="420.65"/>
    <path class="cls-1" d="m142.75,255.79c-.61-.22-1.29-.32-1.81-.66-21.67-14.13-35.24-33.81-39.74-59.33-4.7-26.7,1.77-50.79,18.87-71.72,14.26-17.46,32.89-28.03,55.23-31.15,26.9-3.75,50.92,3.29,71.45,21.25,15.54,13.6,24.94,30.76,28.57,51.07.26,1.45,1.06,1.9,2.23,2.22,6.42,1.81,12.33,4.67,17.76,8.54,8.16,5.81,14.09,13.42,18.26,22.45,5.11,11.08,7.2,22.87,7.27,34.95.18,31.11.07,62.23.12,93.34,0,1.57-.52,1.94-1.99,1.94-20.96-.04-41.92-.05-62.87.02-2.01,0-2.14-.94-2.14-2.48.02-25.26.02-50.53.01-75.79,0-2.38-.02-4.76-.08-7.13-.03-.95-.21-1.89-.33-2.93-3,2.74-5.79,5.47-8.76,7.97-9.72,8.18-20.75,13.93-33,17.29-1.66.45-2.06,1.19-2.06,2.78.05,19.16.03,38.32.03,57.47q0,2.77-2.75,2.78c-20.57,0-41.14,0-61.72,0q-2.49,0-2.49-2.54c0-22.56,0-45.13,0-67.69,0-.9-.05-1.8-.07-2.69,19.96,11.92,41.34,15.28,64.07,10.77,1.94-.38,2.43-1.21,2.41-3.07-.05-7.38-.45-14.79,1.11-22.08,1.36-6.35,3.81-12.1,9.06-16.32,4.14-3.33,8.97-4.75,14.13-4.88,8.14-.22,14.88,2.6,18.33,11.49.89,2.3,1.46,4.72,2.2,7.17,4.83-5.36,8.88-11.2,12.17-17.55,8.47-16.36,11.61-33.68,9.35-51.99-.19-1.56-.65-2.25-2.16-2.56-9.57-1.98-19.17-2.54-28.89-1.27-13.9,1.81-26.2,7-36.52,16.63-.44.41-.98.7-2.01,1.42v-33c-.97.2-1.53.29-2.08.44-19.3,5.29-38.6,10.59-57.9,15.89-3.33.92-2.88.54-2.88,3.87-.01,27.57,0,55.15-.02,82.72,0,.79-.22,1.59-.34,2.38Z"/>
  </g>
</svg>