<?xml version="1.0" encoding="UTF-8"?>
<svg id="Layer_2" data-name="Layer 2" xmlns="http://www.w3.org/2000/svg" viewBox="0 0 372.73 130.96">
  <defs>
    <style>
      .cls-1 {
        fill: #fff;
        stroke-width: 0px;
      }
    </style>
  </defs>
  <g id="Layer_1-2" data-name="Layer 1">
    <path class="cls-1" d="m326.31,106.67l45.5-53.18v-16.6h-107.11l-33.51,30.28h-.61V0h-28.28v65.45c-.93-2.81-2.09-5.47-3.51-7.96-4.1-7.17-9.86-12.7-17.29-16.6-7.43-3.89-16.27-5.84-26.51-5.84s-19.16,1.95-26.75,5.84c-7.58,3.9-13.45,9.43-17.6,16.6-.87,1.5-1.62,3.06-2.3,4.67-1.63-6.42-4.66-11.87-9.11-16.35-7.02-7.07-17.09-10.61-30.2-10.61-8.4,0-15.29,1.51-20.67,4.53-5.38,3.02-9.91,7.2-13.6,12.53h-6.46v-15.37H0v27.67h13.83v64.56h28.28v-49.34c0-6.35,1.66-11.17,5-14.45,3.33-3.28,8.22-4.92,14.68-4.92s11.35,1.64,14.68,4.92c3.33,3.28,5,8.1,5,14.45v49.34h28.28v-22.51c.29.56.57,1.13.89,1.68,4.15,7.22,10.01,12.81,17.6,16.75,7.58,3.95,16.45,5.92,26.59,5.92s19.11-1.95,26.59-5.84c7.48-3.89,13.27-9.45,17.37-16.68,1.42-2.51,2.58-5.18,3.51-7.99v28.66h28.28v-32.89l9.53-7.69,27.97,40.58h104.65v-22.44h-46.42Zm-155.27-6.69c-3.74,4.25-9.15,6.38-16.22,6.38s-12.66-2.13-16.45-6.38c-3.79-4.25-5.69-9.96-5.69-17.14s1.89-12.83,5.69-16.98c3.79-4.15,9.27-6.23,16.45-6.23s12.47,2.08,16.22,6.23c3.74,4.15,5.61,9.81,5.61,16.98s-1.87,12.89-5.61,17.14Zm119,12.53v1.14l-29.95-42.33,32.71-29.55v17.56h42.73l-45.5,53.18Z"/>
  </g>
</svg>